<svg width="96" height="96" viewBox="0 0 96 96" xmlns="http://www.w3.org/2000/svg">
   <path fill="#fff" class="bg" d="m 18,6 h 60 a 12,12 45 0 1 12,12 l 0,60 A 12,12 135 0 1 78,90 L 18,90 A 12,12 45 0 1 6,78 V 18 A 12,12 135 0 1 18,6 Z" />
   <path fill="#aaa" class="border" d="M 18,6 C 11.396279,6 6,11.396279 6,18 v 60 c 0,6.603721 5.396279,12 12,12 h 60 c 6.603721,0 12,-5.396279 12,-12 V 18 C 90,11.396279 84.603721,6 78,6 Z m 0,4 h 60 c 4.441963,0 8,3.558037 8,8 v 60 c 0,4.441963 -3.558037,8 -8,8 H 18 c -4.441963,0 -8,-3.558037 -8,-8 V 18 c 0,-4.441963 3.558037,-8 8,-8 z" />
   <path fill="#aaa" class="text_ett" d="m 55.324671,80.000012 v -17.8496 h 3.3912 l 0.0556,0.877438 q 1.250852,-1.027856 3.029842,-1.027856 1.084073,0 2.168145,0.350975 1.111869,0.325906 2.001364,1.103065 0.889495,0.77716 1.445429,2.030643 0.583731,1.228413 0.583731,3.008359 0,1.805016 -0.583731,3.058499 -0.555934,1.228414 -1.445429,2.005573 -0.889495,0.75209 -1.973568,1.103065 -1.084072,0.350975 -2.11255,0.350975 -0.945089,0 -1.667804,-0.225627 -0.694918,-0.250696 -1.334242,-0.67688 v 5.891371 z m 3.55798,-10.980513 q 0.250171,1.830086 1.111869,2.456827 0.861699,0.601672 1.751194,0.601672 0.861698,0 1.751193,-0.676881 0.917292,-0.676881 0.917292,-2.908081 0,-2.2312 -0.917292,-2.883011 -0.889495,-0.676881 -1.806787,-0.676881 -0.889495,0 -1.723396,0.526463 -0.833902,0.501394 -1.084073,2.005573 z M 41.401324,80.000012 v -17.8496 h 3.3912 l 0.0556,0.877438 q 1.250852,-1.027856 3.029842,-1.027856 1.084072,0 2.168145,0.350975 1.111868,0.325906 2.001363,1.103065 0.889496,0.77716 1.44543,2.030643 0.583731,1.228413 0.583731,3.008359 0,1.805016 -0.583731,3.058499 -0.555934,1.228414 -1.44543,2.005573 -0.889495,0.75209 -1.973567,1.103065 -1.084072,0.350975 -2.112551,0.350975 -0.945088,0 -1.667803,-0.225627 -0.694918,-0.250696 -1.334243,-0.67688 v 5.891371 z m 3.55798,-10.980513 q 0.250171,1.830086 1.111869,2.456827 0.861698,0.601672 1.751194,0.601672 0.861698,0 1.751193,-0.676881 0.917292,-0.676881 0.917292,-2.908081 0,-2.2312 -0.917292,-2.883011 -0.889495,-0.676881 -1.806787,-0.676881 -0.889495,0 -1.723397,0.526463 -0.833901,0.501394 -1.084072,2.005573 z m -8.731441,5.841231 -0.0556,-0.877438 q -1.473226,1.027856 -3.30781,1.027856 -2.001364,0 -3.446793,-0.902507 -1.417633,-0.927578 -1.417633,-3.00836 0,-1.905294 1.334243,-2.883011 1.334242,-0.977717 3.863744,-1.128135 l 2.863062,-0.175487 V 66.76323 q 0,-1.830086 -2.056957,-1.830086 -1.61221,0 -2.585095,1.178275 l -2.918656,-0.75209 q 0.500341,-1.47911 2.056958,-2.406688 1.556616,-0.952647 3.55798,-0.952647 2.612892,0 4.058321,1.303622 1.44543,1.303623 1.44543,3.233987 v 8.323127 z m -0.16678,-5.364907 -2.807469,0.150418 q -1.667804,0.0752 -1.667804,1.403901 0,0.376045 0.277968,0.70195 0.305764,0.325906 1.473226,0.325906 0.583731,0 1.306446,-0.150418 0.722715,-0.150418 1.417633,-0.802229 z" />
   <path fill="#aaa" class="text_en" d="M 62.365268,59.768777 V 48.554899 q 0,-2.543354 -1.012493,-3.275532 -1.012492,-0.770713 -2.024984,-0.770713 -1.056513,0 -2.157049,0.732177 -1.100534,0.732178 -1.452706,2.813104 V 59.768777 H 50.083297 V 40.231196 h 5.37061 l 0.08804,1.348748 q 2.113027,-1.579963 4.446161,-1.579963 1.320642,0 2.729327,0.423892 1.408685,0.423893 2.597263,1.425821 1.188578,0.963391 1.936941,2.543353 0.748364,1.541427 0.748364,3.853567 V 59.768777 Z M 33.810823,51.676288 q 0.352171,2.427746 1.672813,3.121388 1.320642,0.693642 2.685305,0.693642 1.276621,0 2.465198,-0.578035 1.188578,-0.578035 2.069007,-1.811176 l 4.930396,1.117534 q -0.880428,2.813103 -3.477691,4.315994 -2.55324,1.464356 -5.854846,1.464356 -1.980962,0 -3.873882,-0.500964 -1.8489,-0.539499 -3.301606,-1.734105 -1.408684,-1.194605 -2.289112,-3.082853 -0.836407,-1.888248 -0.836407,-4.624279 0,-2.774568 0.880428,-4.701351 0.880428,-1.926784 2.289112,-3.082853 1.408685,-1.194606 3.213563,-1.734106 1.848899,-0.539499 3.697798,-0.539499 1.848899,0 3.653776,0.539499 1.848899,0.5395 3.257583,1.734106 1.408685,1.156069 2.289113,3.082853 0.880428,1.888247 0.880428,4.662815 v 1.657034 z m 8.320045,-3.930638 q -0.484236,-2.003855 -1.672814,-2.620426 -1.188578,-0.61657 -2.377155,-0.61657 -1.2326,0 -2.421178,0.655107 -1.188577,0.61657 -1.716835,2.581889 z" />
   <path fill="#aaa" class="text_app" d="m 67.999967,37.128021 q -1.039878,0.435975 -1.96834,0.670731 -0.928462,0.201219 -2.005478,0.201219 -3.008218,0 -4.270926,-1.609754 -1.225571,-1.609755 -1.225571,-3.990851 V 24.58535 h -1.931201 v -3.789631 h 1.931201 v -4.795727 h 4.753727 v 4.795727 h 4.345204 v 3.789631 h -4.345204 v 7.478651 q 0,1.307926 0.371385,1.676828 0.408523,0.335365 1.262708,0.335365 0.519939,0 1.336987,-0.167683 0.854184,-0.167682 1.4484,-0.368901 z m -11.639168,0 q -1.039877,0.435975 -1.96834,0.670731 -0.928462,0.201219 -2.005479,0.201219 -3.008217,0 -4.270926,-1.609754 -1.225569,-1.609755 -1.225569,-3.990851 V 24.58535 h -1.931203 v -3.789631 h 1.931203 v -4.795727 h 4.753725 v 4.795727 h 4.345204 V 24.58535 H 51.64421 v 7.478651 q 0,1.307926 0.371385,1.676828 0.408524,0.335365 1.26271,0.335365 0.519938,0 1.336985,-0.167683 0.854185,-0.167682 1.448402,-0.368901 z M 32.902308,30.756076 q 0.297108,2.112803 1.411263,2.716461 1.114155,0.603657 2.265448,0.603657 1.077016,0 2.079755,-0.503048 1.002739,-0.503048 1.745509,-1.576218 l 4.159511,0.972561 q -0.742769,2.448167 -2.933941,3.756094 -2.154032,1.274388 -4.939419,1.274388 -1.671232,0 -3.268187,-0.435975 -1.559816,-0.469512 -2.785386,-1.509145 -1.188432,-1.039633 -1.931202,-2.682924 -0.705632,-1.643292 -0.705632,-4.024386 0,-2.414632 0.74277,-4.09146 0.74277,-1.676828 1.931202,-2.682924 1.188432,-1.039634 2.71111,-1.509145 1.559816,-0.469513 3.119632,-0.469513 1.559818,0 3.082495,0.469513 1.559817,0.469511 2.748249,1.509145 1.188432,1.006096 1.931202,2.682924 0.742769,1.643291 0.742769,4.057923 v 1.442072 z m 7.019175,-3.420729 q -0.408523,-1.7439 -1.411263,-2.280486 -1.002739,-0.536584 -2.005479,-0.536584 -1.039877,0 -2.042617,0.570121 -1.002739,0.536585 -1.4484,2.246949 z" />
</svg>
