<svg xmlns="http://www.w3.org/2000/svg" width="160" height="100" viewBox="0 0 160 100">
  <path class="bg" fill="none"
     d="m 19,7 h 122 a 12,12 45 0 1 12,12 V 81 A 12,12 135 0 1 141,93 H 19 A 12,12 45 0 1 7,81 V 19 A 12,12 135 0 1 19,7 Z"
  />
  <path class="border" fill="#aaa"
     d="M 19,7 C 12.396279,7 7,12.396279 7,19 v 62 c 0,6.603721 5.396279,12 12,12 h 122 c 6.60372,0 12,-5.396279 12,-12 V 19 C 153,12.396279 147.60372,7 141,7 Z m 0,4 h 122 c 4.44196,0 8,3.558037 8,8 v 62 c 0,4.441963 -3.55804,8 -8,8 H 19 c -4.441963,0 -8,-3.558037 -8,-8 V 19 c 0,-4.441963 3.558037,-8 8,-8 z"
  />
  <path class="text_ett" fill="#aaa"
     d="M 55.458984 55 C 54.301435 55 53.143878 55.126098 51.986328 55.378906 C 50.855697 55.603625 49.831287 55.996796 48.916016 56.558594 C 48.000744 57.120391 47.248485 57.866002 46.65625 58.792969 C 46.064016 59.719934 45.727244 60.884568 45.646484 62.289062 L 51.380859 62.289062 C 51.488538 61.109287 51.863691 60.267337 52.509766 59.761719 C 53.15584 59.256101 54.045151 59.001953 55.175781 59.001953 C 55.687257 59.001953 56.159128 59.044636 56.589844 59.128906 C 57.04748 59.185086 57.436729 59.326061 57.759766 59.550781 C 58.109723 59.74741 58.379921 60.042288 58.568359 60.435547 C 58.783718 60.800715 58.890625 61.307058 58.890625 61.953125 C 58.917544 62.571103 58.742111 63.047688 58.365234 63.384766 C 57.988358 63.693754 57.478105 63.933023 56.832031 64.101562 C 56.185957 64.270102 55.445841 64.396199 54.611328 64.480469 C 53.776816 64.564737 52.927839 64.677909 52.066406 64.818359 C 51.204974 64.958809 50.343855 65.155394 49.482422 65.408203 C 48.647909 65.632922 47.893696 65.98341 47.220703 66.460938 C 46.574628 66.938466 46.036185 67.583831 45.605469 68.398438 C 45.201673 69.184954 45 70.195686 45 71.431641 C 45 72.555236 45.175435 73.525237 45.525391 74.339844 C 45.902268 75.15445 46.41252 75.829574 47.058594 76.363281 C 47.704668 76.896989 48.458881 77.29016 49.320312 77.542969 C 50.181744 77.795778 51.11139 77.921875 52.107422 77.921875 C 53.399571 77.921875 54.664035 77.725289 55.902344 77.332031 C 57.140652 76.938773 58.21754 76.250724 59.132812 75.267578 C 59.159733 75.632746 59.200066 75.998113 59.253906 76.363281 C 59.334665 76.700361 59.42943 77.035968 59.537109 77.373047 L 65.351562 77.373047 C 65.082365 76.923608 64.892835 76.250439 64.785156 75.351562 C 64.677477 74.452687 64.625 73.51049 64.625 72.527344 L 64.625 61.193359 C 64.625 59.873134 64.342659 58.81972 63.777344 58.033203 C 63.212028 57.218596 62.484054 56.586156 61.595703 56.136719 C 60.70735 55.687281 59.725228 55.392403 58.648438 55.251953 C 57.571648 55.083414 56.508855 55 55.458984 55 z M 80.826172 55 C 79.534024 55 78.348275 55.267074 77.271484 55.800781 C 76.194694 56.334489 75.307335 57.191318 74.607422 58.371094 L 74.525391 58.371094 L 74.525391 55.589844 L 69.074219 55.589844 L 69.074219 85 L 74.808594 85 L 74.808594 74.677734 L 74.890625 74.677734 C 75.590538 75.74515 76.477897 76.559296 77.554688 77.121094 C 78.658398 77.654802 79.85629 77.921875 81.148438 77.921875 C 82.682864 77.921875 84.015854 77.612119 85.146484 76.994141 C 86.304034 76.376164 87.259919 75.547139 88.013672 74.507812 C 88.794345 73.468487 89.373124 72.276049 89.75 70.927734 C 90.126877 69.57942 90.314453 68.173565 90.314453 66.712891 C 90.314453 65.167947 90.126877 63.693556 89.75 62.289062 C 89.373124 60.856478 88.794345 59.606478 88.013672 58.539062 C 87.232999 57.471647 86.250876 56.614817 85.066406 55.96875 C 83.881937 55.322683 82.468278 55 80.826172 55 z M 105.51172 55 C 104.21957 55 103.03382 55.267074 101.95703 55.800781 C 100.88024 56.334489 99.992884 57.191318 99.292969 58.371094 L 99.210938 58.371094 L 99.210938 55.589844 L 93.759766 55.589844 L 93.759766 85 L 99.494141 85 L 99.494141 74.677734 L 99.574219 74.677734 C 100.27413 75.74515 101.16344 76.559296 102.24023 77.121094 C 103.34395 77.654802 104.54184 77.921875 105.83398 77.921875 C 107.36841 77.921875 108.7014 77.612119 109.83203 76.994141 C 110.98958 76.376164 111.94546 75.547139 112.69922 74.507812 C 113.47989 73.468487 114.05867 72.276049 114.43555 70.927734 C 114.81243 69.57942 115 68.173565 115 66.712891 C 115 65.167947 114.81243 63.693556 114.43555 62.289062 C 114.05867 60.856478 113.47989 59.606478 112.69922 58.539062 C 111.91855 57.471647 110.93447 56.614817 109.75 55.96875 C 108.56553 55.322683 107.15382 55 105.51172 55 z M 79.574219 59.507812 C 80.489491 59.507812 81.255846 59.719278 81.875 60.140625 C 82.521075 60.533884 83.047376 61.06803 83.451172 61.742188 C 83.854969 62.388255 84.137309 63.131913 84.298828 63.974609 C 84.487266 64.817305 84.580078 65.674135 84.580078 66.544922 C 84.580078 67.415709 84.499409 68.272538 84.337891 69.115234 C 84.176373 69.95793 83.894031 70.701589 83.490234 71.347656 C 83.113358 71.965634 82.603106 72.471976 81.957031 72.865234 C 81.337877 73.258493 80.555473 73.455078 79.613281 73.455078 C 78.698009 73.455078 77.917558 73.258493 77.271484 72.865234 C 76.62541 72.471976 76.101062 71.965634 75.697266 71.347656 C 75.320388 70.701589 75.038047 69.95793 74.849609 69.115234 C 74.688091 68.272538 74.607422 67.415709 74.607422 66.544922 C 74.607422 65.646045 74.688091 64.774337 74.849609 63.931641 C 75.011128 63.088944 75.279373 62.345286 75.65625 61.699219 C 76.060046 61.053151 76.572252 60.533884 77.191406 60.140625 C 77.837481 59.719278 78.632027 59.507813 79.574219 59.507812 z M 104.25977 59.507812 C 105.17504 59.507812 105.94139 59.719278 106.56055 60.140625 C 107.20662 60.533884 107.73097 61.06803 108.13477 61.742188 C 108.53857 62.388255 108.82286 63.131913 108.98438 63.974609 C 109.17281 64.817305 109.26562 65.674135 109.26562 66.544922 C 109.26562 67.415709 109.18495 68.272538 109.02344 69.115234 C 108.86192 69.95793 108.57958 70.701589 108.17578 71.347656 C 107.79891 71.965634 107.28671 72.471976 106.64062 72.865234 C 106.02147 73.258493 105.24102 73.455078 104.29883 73.455078 C 103.38355 73.455078 102.6031 73.258493 101.95703 72.865234 C 101.31096 72.471976 100.78661 71.965634 100.38281 71.347656 C 100.00594 70.701589 99.723598 69.95793 99.535156 69.115234 C 99.373636 68.272538 99.292969 67.415709 99.292969 66.544922 C 99.292969 65.646045 99.373636 64.774337 99.535156 63.931641 C 99.696676 63.088944 99.964922 62.345286 100.3418 61.699219 C 100.7456 61.053151 101.2578 60.533884 101.87695 60.140625 C 102.52303 59.719278 103.31758 59.507813 104.25977 59.507812 z M 58.890625 66.712891 L 58.890625 68.947266 C 58.890625 69.284344 58.850291 69.733125 58.769531 70.294922 C 58.715691 70.85672 58.540258 71.418671 58.244141 71.980469 C 57.948023 72.514177 57.490248 72.977836 56.871094 73.371094 C 56.251939 73.764352 55.376724 73.960938 54.246094 73.960938 C 53.788458 73.960938 53.344779 73.918254 52.914062 73.833984 C 52.483346 73.749714 52.10624 73.608738 51.783203 73.412109 C 51.460166 73.18739 51.204064 72.892512 51.015625 72.527344 C 50.827186 72.162176 50.734375 71.713395 50.734375 71.179688 C 50.734375 70.61789 50.827186 70.154231 51.015625 69.789062 C 51.204064 69.423894 51.448023 69.129016 51.744141 68.904297 C 52.067177 68.651488 52.430188 68.454902 52.833984 68.314453 C 53.2647 68.174004 53.694283 68.060833 54.125 67.976562 C 54.582636 67.892294 55.040412 67.823758 55.498047 67.767578 C 55.955683 67.711398 56.387219 67.640911 56.791016 67.556641 C 57.221732 67.472371 57.61098 67.374078 57.960938 67.261719 C 58.337813 67.121269 58.648346 66.93761 58.890625 66.712891 z " />
  <path class="text_app" fill="#aaa"
     d="M 81.125 15 L 81.125 22.919922 L 76.248047 22.919922 L 76.248047 27.773438 L 81.125 27.773438 L 81.125 43.357422 C 81.125 44.685889 81.370013 45.758653 81.861328 46.576172 C 82.352643 47.39369 83.014246 48.023974 83.845703 48.466797 C 84.714953 48.90962 85.696957 49.199685 86.792969 49.335938 C 87.926773 49.506254 89.11805 49.591797 90.365234 49.591797 C 91.158897 49.591797 91.971277 49.575076 92.802734 49.541016 C 93.634191 49.506949 94.39003 49.438124 95.070312 49.335938 L 95.070312 43.714844 C 94.692378 43.78297 94.294634 43.835077 93.878906 43.869141 C 93.463178 43.903207 93.029694 43.919922 92.576172 43.919922 C 91.215607 43.919922 90.307038 43.7154 89.853516 43.306641 C 89.399994 42.897881 89.173828 42.079793 89.173828 40.853516 L 89.173828 27.773438 L 95.070312 27.773438 L 95.070312 22.919922 L 89.173828 22.919922 L 89.173828 15 L 81.125 15 z M 101.05469 15 L 101.05469 22.919922 L 96.179688 22.919922 L 96.179688 27.773438 L 101.05469 27.773438 L 101.05469 43.357422 C 101.05469 44.685889 101.2997 45.758653 101.79102 46.576172 C 102.28234 47.39369 102.94394 48.023974 103.77539 48.466797 C 104.64464 48.90962 105.62664 49.199685 106.72266 49.335938 C 107.85646 49.506254 109.04774 49.591797 110.29492 49.591797 C 111.08859 49.591797 111.90097 49.575076 112.73242 49.541016 C 113.56388 49.506949 114.31971 49.438124 115 49.335938 L 115 43.714844 C 114.62206 43.78297 114.22432 43.835077 113.80859 43.869141 C 113.39287 43.903207 112.95939 43.919922 112.50586 43.919922 C 111.14529 43.919922 110.23867 43.7154 109.78516 43.306641 C 109.33163 42.897881 109.10352 42.079793 109.10352 40.853516 L 109.10352 27.773438 L 115 27.773438 L 115 22.919922 L 109.10352 22.919922 L 109.10352 15 L 101.05469 15 z M 59.966797 22.205078 C 57.736982 22.205078 55.695631 22.562015 53.84375 23.277344 C 52.029663 23.992672 50.461444 24.979894 49.138672 26.240234 C 47.815901 27.466513 46.794248 28.931602 46.076172 30.634766 C 45.358095 32.337929 45 34.176674 45 36.152344 C 45 38.19614 45.339249 40.070274 46.019531 41.773438 C 46.737607 43.476602 47.740412 44.941691 49.025391 46.167969 C 50.310369 47.394247 51.878588 48.348032 53.730469 49.029297 C 55.58235 49.676499 57.661395 50 59.966797 50 C 63.292624 50 66.127507 49.319562 68.470703 47.957031 C 70.813898 46.594501 72.551742 44.328041 73.685547 41.160156 L 66.599609 41.160156 C 66.335055 41.977675 65.61691 42.762326 64.445312 43.511719 C 63.273715 44.227047 61.87512 44.583984 60.25 44.583984 C 57.982391 44.583984 56.242594 44.055962 55.033203 43 C 53.823811 41.944039 53.164161 40.24099 53.050781 37.890625 L 74.195312 37.890625 C 74.346486 35.846828 74.158016 33.887152 73.628906 32.013672 C 73.099798 30.140192 72.230876 28.472533 71.021484 27.007812 C 69.849886 25.543092 68.338209 24.384784 66.486328 23.533203 C 64.634447 22.647558 62.461167 22.205078 59.966797 22.205078 z M 59.740234 27.671875 C 61.705496 27.671875 63.160632 28.14779 64.105469 29.101562 C 65.0881 30.055334 65.766597 31.451599 66.144531 33.291016 L 53.050781 33.291016 C 53.088575 32.780066 53.201658 32.201889 53.390625 31.554688 C 53.617386 30.907486 53.975482 30.29392 54.466797 29.714844 C 54.995906 29.135768 55.676356 28.659852 56.507812 28.285156 C 57.377062 27.876397 58.455256 27.671875 59.740234 27.671875 z " />
</svg>
