<svg xmlns="http://www.w3.org/2000/svg" width="320" height="170" viewBox="0 0 320 170">
  <path
     class="bg" fill="none"
     d="M 42.177094,12.177048 H 277.82291 a 30,30 45 0 1 30,30 v 85.645902 a 30,30 135 0 1 -30,30 H 42.177094 a 30,30 45 0 1 -30,-30 V 42.177048 a 30,30 135 0 1 30,-30 z" />
  <path class="border" fill="#aaa"
     d="M 42.177734,10 C 24.432612,10 10,24.432612 10,42.177734 V 127.82227 C 10,145.56739 24.432612,160 42.177734,160 H 277.82227 C 295.56739,160 310,145.56739 310,127.82227 V 42.177734 C 310,24.432612 295.56739,10 277.82227,10 Z m 0,4.353516 H 277.82227 c 15.39193,0 27.82421,12.432289 27.82421,27.824218 v 85.644536 c 0,15.39193 -12.43228,27.82421 -27.82421,27.82421 H 42.177734 c -15.391929,0 -27.824218,-12.43228 -27.824218,-27.82421 V 42.177734 c 0,-15.391929 12.432289,-27.824218 27.824218,-27.824218 z" />
   <path class="text-ett"
     id="path830" fill="#aaa"
     d="m 110.63836,66.867413 v 10.398594 h 5.15632 v 24.750373 q 0,3.86725 0.68751,6.27354 0.77345,2.32035 2.32035,3.52349 1.63284,1.20315 4.12506,1.5469 2.49223,0.25782 6.01572,0.25782 1.97659,0 4.12506,-0.17188 2.14847,-0.0859 4.29694,-0.0859 v -10.31267 h -2.40628 q -1.89066,0 -2.83598,-0.77344 -0.85939,-0.85939 -0.85939,-2.835978 V 77.266007 h 6.10165 V 66.867413 h -6.10165 V 53.203144 h -15.46899 v 13.664269 z m -29.824558,0 v 10.398594 h 5.156328 v 24.750373 q 0,3.86725 0.68751,6.27354 0.773449,2.32035 2.320348,3.52349 1.632837,1.20315 4.125062,1.5469 2.492225,0.25782 6.015716,0.25782 1.976594,0 4.125064,-0.17188 2.14847,-0.0859 4.29694,-0.0859 v -10.31267 h -2.40628 q -1.89066,0 -2.83599,-0.77344 -0.85939,-0.85939 -0.85939,-2.835978 V 77.266007 h 6.10166 V 66.867413 h -6.10166 V 53.203144 H 85.970129 V 66.867413 Z M 38.653002,52 v 61.36031 h 37.12556 V 100.2976 H 54.637618 V 88.094296 H 73.716031 V 75.547232 H 54.637618 V 65.062698 H 75.005113 V 52.000001 Z" />
  <path class="text-app"
     id="path836" fill="#aaa"
     d="m 257.1982,90.070888 q 0,-3.781307 0.17188,-6.187593 0.17188,-2.492225 0.60157,-3.953185 0.51563,-1.546898 1.37502,-2.148471 0.85939,-0.601571 2.14847,-0.601571 1.37502,0 2.23441,0.601571 0.85939,0.601573 1.28908,2.148471 0.51563,1.46096 0.68751,3.953185 0.17188,2.406285 0.17188,6.187592 0,3.781307 -0.17188,6.273533 -0.17188,2.492221 -0.68751,4.03912 -0.42969,1.46096 -1.28908,2.06253 -0.85939,0.60157 -2.23441,0.60157 -1.28908,0 -2.14847,-0.60157 -0.85939,-0.60157 -1.37502,-2.06253 -0.42969,-1.546898 -0.60157,-4.03912 -0.17188,-2.492226 -0.17188,-6.273532 z M 241.72922,66.867413 v 61.360307 h 15.46898 v -20.10968 h 0.17188 q 1.20314,3.60943 3.78131,4.89852 2.6641,1.28908 5.92977,1.28908 3.26568,0 5.84384,-1.03127 2.6641,-1.1172 4.46882,-3.78131 1.89065,-2.75004 2.92192,-7.21886 1.03126,-4.468821 1.03126,-11.172047 0,-12.89082 -3.09379,-19.164352 -3.0938,-6.273532 -10.82829,-6.273532 -7.90637,0 -10.57047,7.562614 h -0.17188 v -6.359471 z m -31.97973,23.203474 q 0,-3.781307 0.17187,-6.187592 0.17188,-2.492225 0.60157,-3.953185 0.51564,-1.546898 1.37503,-2.148471 0.85938,-0.601571 2.14847,-0.601571 1.37502,0 2.2344,0.601571 0.85939,0.601573 1.28909,2.148471 0.51563,1.46096 0.68751,3.953185 0.17187,2.406285 0.17187,6.187592 0,3.781307 -0.17187,6.273533 -0.17188,2.492221 -0.68751,4.03912 -0.4297,1.46096 -1.28909,2.06253 -0.85938,0.60157 -2.2344,0.60157 -1.28909,0 -2.14847,-0.60157 -0.85939,-0.60157 -1.37503,-2.06253 -0.42969,-1.546898 -0.60157,-4.03912 -0.17187,-2.492226 -0.17187,-6.273533 z M 194.2805,66.867413 v 61.360307 h 15.46899 v -20.10968 h 0.17187 q 1.20315,3.60943 3.78131,4.89852 2.6641,1.28908 5.92978,1.28908 3.26567,0 5.84384,-1.03127 2.6641,-1.1172 4.46881,-3.78131 1.89066,-2.75004 2.92192,-7.21886 1.03127,-4.468821 1.03127,-11.172047 0,-12.89082 -3.0938,-19.164352 -3.0938,-6.273532 -10.82829,-6.273532 -7.90637,0 -10.57047,7.562614 h -0.17188 v -6.359471 z m -30.18442,-2.320347 -4.38288,26.039455 h 8.93764 L 164.26796,64.547066 Z M 174.23686,52 l 14.95335,61.36031 h -17.01588 l -1.63284,-10.74236 h -12.71894 l -1.63284,10.74236 H 139.43165 L 154.12718,52 Z" />
</svg>
